<svg xmlns="http://www.w3.org/2000/svg" xmlns:xlink="http://www.w3.org/1999/xlink" version="1.1" width="1000" height="1000" viewBox="0 0 1000 1000" xml:space="preserve">
<desc>Created with Fabric.js 3.5.0</desc>
<defs>
</defs>
<rect x="0" y="0" width="100%" height="100%" fill="rgba(255,255,255,0)"/>
<g transform="matrix(3.5875 0 0 3.5875 500.0044 500.0044)" id="430747">
<path style="stroke: none; stroke-width: 1; stroke-dasharray: none; stroke-linecap: butt; stroke-dashoffset: 0; stroke-linejoin: miter; stroke-miterlimit: 4; is-custom-font: none; font-file-url: none; fill: rgb(250,235,215); fill-rule: nonzero; opacity: 1;" vector-effect="non-scaling-stroke" transform=" translate(949.0962, -1051.25)" d="M -827.3 979.5 c 0 0 -2.2 -13.1 -5.2 -17.1 c -3.8 -5.1 -16.4 -12.1 -16.4 -12.1 c -2.6 3.7 3.6 -9.8 7.3 -22.7 c 0 0 -24.2 3.2 -46.8 27.6 c -6.4 7 -17.8 38.6 -17.8 38.6 l -44.7 20.5 c -31.1 12.9 -82.7 26.2 -82.7 97.7 v 30.5 c -2.5 -1.7 -15.7 -12.7 -15.5 -29.9 c 0.1 -13.6 1.9 -27.5 3.6 -39.9 c 3.1 -22.7 5.5 -47.1 -3.7 -57.6 c -4.2 -4.8 -10.2 -7.3 -17.7 -7.3 c -4.9 0 -8.9 4 -8.9 8.9 c 0 4.9 4 8.9 8.9 8.9 c 2.2 0 3.6 0.4 4.3 1.2 c 3.8 4.4 1.5 28.1 -0.6 43.4 c -1.7 12.9 -3.7 27.5 -3.7 42.2 c 0 16.2 5.6 31.4 15.7 42.8 c 11.5 12.9 27.7 19.7 46.8 19.7 c 0 0 0 0 0 0 h 62.5 h 8.9 h 17.9 c 4.9 0 8.9 -4 8.9 -8.9 s -4 -8.9 -8.9 -8.9 l -19.6 0 l 9.5 -31.3 c 0 -4.5 -1 -8.8 -2.7 -12.6 c -7.1 -12.1 -19.9 -19.6 -34 -19.6 c -6.2 0 -12 1.4 -17.5 4.1 l -2.9 -5.8 c 6.4 -3.2 13.2 -4.8 20.4 -4.8 c 16.8 0 32.3 9.2 40.3 24 l 0 0 l 0 0 c 0 0 33.1 50.7 36.4 57.9 c 0 0.1 0.1 0.1 0.1 0.2 c 0.9 2.7 3.1 4.7 5.9 5.3 c 0.1 0 0.2 0 0.3 0.1 c 0.5 0.1 0.9 0.3 1.4 0.3 h 9.8 c 4.4 0 8.1 -3.6 8.1 -8.1 c 0 -4.4 -3.6 -8.1 -8.1 -8.1 h 0.2 c 0 0 -26.6 -47.4 -21.4 -64.2 c 23.7 -37.2 36.5 -72.5 36.5 -72.5 c 5.1 -11.6 18.2 -20.5 20 -21.7 c 4 -2.7 9.5 -6.1 10 -11.3 C -822.2 986.7 -826 981.7 -827.3 979.5 z" stroke-linecap="round"/>
</g>
</svg>